# xmcd CD database file
#
# Track frame offsets:
#	187
#	17809
#	38379
#	55469
#	68302
#	92519
#	115999
#	132852
#	152227
#	173702
#	190099
#
# Disc length: 2911 seconds
#
# Revision: 4
# Processed by: cddbd v1.5.1PL0 Copyright (c) Steve Scherf et al.
# Submitted via: CDex 1.51
#
DISCID=820b5d0b
DTITLE=Diverse - Rhythm, Country And Blues
DYEAR=1994
DGENRE=Country
TTITLE0=Vince Gill and Gladys Knight - Ain't Nothing Like The Real Thing
TTITLE1=Al Green and Lyle Lovett - Funny How Time Slips Away
TTITLE2=Aaron Neville and Trisha Yearwood - I Fall To Pieces
TTITLE3=Little Richard and Tanya Tucker - Somethin' Else
TTITLE4=Patti Labelle and Travis Tritt - When Something Is Wrong With My Baby
TTITLE5=Sam Moor and Conway Twitty - Rainy Night In Georgia
TTITLE6=Clint Black and Pointer Sisters - Chain Of Fools
TTITLE7=Natalie Cole and Reba McEntire - Since I Fell For You
TTITLE8=Chet Atkins and Allen Toussaint - Southern Nights
TTITLE9=Marty Stuart and The Staple Singers - The Weight
TTITLE10=George Jones and B.B. King - Patches
EXTD=YEAR: 1994
EXTT0=
EXTT1=
EXTT2=
EXTT3=
EXTT4=
EXTT5=
EXTT6=
EXTT7=
EXTT8=
EXTT9=
EXTT10=
PLAYORDER=
